<svg width="48" fill="#000000" xmlns="http://www.w3.org/2000/svg" height="48" viewBox="0 0 48 48" xmlns:xlink="http://www.w3.org/1999/xlink" enable-background="new 0 0 16 16">
<path d="m45,21h-3c-.105,0-.192,.051-.297,.06-.456-2.769-1.527-5.316-3.093-7.506 .075-.063 .168-.087 .24-.159l2.121-2.121c1.173-1.173 1.173-3.069 0-4.242s-3.072-1.173-4.242,0l-2.124,2.118c-.069,.069-.096,.165-.159,.24-2.187-1.569-4.737-2.637-7.506-3.093 .009-.105 .06-.192 .06-.297v-3c0-1.656-1.341-3-3-3s-3,1.344-3,3v3c0,.105 .051,.192 .06,.297-2.769,.456-5.319,1.524-7.506,3.093-.063-.075-.09-.168-.159-.24l-2.121-2.121c-1.173-1.173-3.072-1.173-4.245,0-1.17,1.173-1.17,3.069 0,4.242l2.124,2.121c.069,.072 .159,.099 .237,.162-1.569,2.19-2.637,4.737-3.093,7.506-.105-.009-.192-.06-.297-.06h-3c-1.659,0-3,1.344-3,3s1.341,3 3,3h3c.105,0 .192-.048 .297-.06 .456,2.769 1.527,5.316 3.093,7.506-.075,.063-.168,.087-.237,.159l-2.124,2.121c-1.17,1.173-1.17,3.072 0,4.242 1.173,1.173 3.072,1.173 4.245,0l2.121-2.121c.069-.069 .096-.165 .159-.24 2.187,1.569 4.737,2.637 7.506,3.096-.009,.105-.06,.192-.06,.297v3c0,1.659 1.341,3 3,3s3-1.341 3-3v-3c0-.105-.051-.192-.06-.297 2.769-.459 5.316-1.527 7.506-3.096 .063,.075 .087,.171 .159,.24l2.124,2.121c1.17,1.173 3.069,1.173 4.242,0 1.173-1.17 1.173-3.069 0-4.242l-2.121-2.121c-.072-.069-.165-.093-.24-.159 1.566-2.19 2.637-4.737 3.093-7.506 .105,.012 .192,.06 .297,.06h3c1.659,0 3-1.344 3-3s-1.341-3-3-3zm-21,15c-6.627,0-12-5.373-12-12s5.373-12 12-12 12,5.373 12,12-5.373,12-12,12z"/>
</svg>
